<svg xmlns="http://www.w3.org/2000/svg" width="18.721" height="16.056" viewBox="0 0 18.721 16.056">
  <path id="Path_17" data-name="Path 17" d="M29.5,32a5.123,5.123,0,0,0-4.168,1.991A5.229,5.229,0,0,0,16,37.168C16,43,24.651,47.725,25.02,47.92a.667.667,0,0,0,.632,0c.368-.2,9.02-4.918,9.02-10.753A5.174,5.174,0,0,0,29.5,32ZM25.336,46.57c-1.522-.887-8-4.927-8-9.4a3.839,3.839,0,0,1,3.834-3.834,3.719,3.719,0,0,1,3.551,2.251.667.667,0,0,0,1.234,0A3.715,3.715,0,0,1,29.5,33.334a3.839,3.839,0,0,1,3.834,3.834C33.337,41.636,26.856,45.682,25.336,46.57Z" transform="translate(-15.975 -31.975)" fill="#030303" stroke="#000" stroke-width="0.05"/>
</svg>
